<mxfile host="app.diagrams.net" agent="Mozilla/5.0 (Windows NT 10.0; Win64; x64) AppleWebKit/537.36 (KHTML, like Gecko) Chrome/128.0.0.0 Safari/537.36" version="24.7.8">
  <diagram name="Page-1" id="m5Tjf7t3fme8k3Sj84lw">
    <mxGraphModel dx="660" dy="929" grid="1" gridSize="10" guides="1" tooltips="1" connect="1" arrows="1" fold="1" page="1" pageScale="1" pageWidth="850" pageHeight="1100" math="0" shadow="0">
      <root>
        <mxCell id="0" />
        <mxCell id="1" parent="0" />
        <mxCell id="jHOiB6HgD3jSkZohINt8-14" style="edgeStyle=orthogonalEdgeStyle;rounded=0;orthogonalLoop=1;jettySize=auto;html=1;startArrow=classic;startFill=1;shape=link;exitX=0.5;exitY=0.07;exitDx=0;exitDy=0;exitPerimeter=0;" parent="1" source="jHOiB6HgD3jSkZohINt8-2" edge="1">
          <mxGeometry relative="1" as="geometry">
            <mxPoint x="410" y="650" as="sourcePoint" />
            <mxPoint x="409" y="390" as="targetPoint" />
          </mxGeometry>
        </mxCell>
        <mxCell id="jHOiB6HgD3jSkZohINt8-1" value="Windows 10 Client&amp;nbsp;&lt;div&gt;&lt;span style=&quot;background-color: initial;&quot;&gt;Wazuh Agent&lt;/span&gt;&lt;br&gt;&lt;/div&gt;&lt;div&gt;&lt;div&gt;&lt;br&gt;&lt;/div&gt;&lt;/div&gt;" style="fontColor=#ffffff;verticalAlign=top;verticalLabelPosition=bottom;labelPosition=center;align=center;html=1;outlineConnect=0;fillColor=none;strokeColor=#A50040;gradientDirection=north;strokeWidth=2;shape=mxgraph.networks.pc;shadow=0;gradientColor=none;" parent="1" vertex="1">
          <mxGeometry x="360" y="650" width="100" height="70" as="geometry" />
        </mxCell>
        <mxCell id="jHOiB6HgD3jSkZohINt8-16" style="edgeStyle=orthogonalEdgeStyle;rounded=0;orthogonalLoop=1;jettySize=auto;html=1;shape=link;strokeColor=#B5B5B5;" parent="1" source="jHOiB6HgD3jSkZohINt8-2" edge="1">
          <mxGeometry relative="1" as="geometry">
            <mxPoint x="410" y="220" as="targetPoint" />
          </mxGeometry>
        </mxCell>
        <mxCell id="HWlrB3JDiIvv8FSev2mT-2" style="rounded=0;orthogonalLoop=1;jettySize=auto;html=1;entryX=0.5;entryY=0;entryDx=0;entryDy=0;shape=link;" edge="1" parent="1" source="jHOiB6HgD3jSkZohINt8-3" target="jHOiB6HgD3jSkZohINt8-4">
          <mxGeometry relative="1" as="geometry" />
        </mxCell>
        <mxCell id="HWlrB3JDiIvv8FSev2mT-3" value="5. Send Alerts" style="edgeLabel;html=1;align=center;verticalAlign=middle;resizable=0;points=[];" vertex="1" connectable="0" parent="HWlrB3JDiIvv8FSev2mT-2">
          <mxGeometry x="-0.1462" y="-2" relative="1" as="geometry">
            <mxPoint x="1" as="offset" />
          </mxGeometry>
        </mxCell>
        <mxCell id="HWlrB3JDiIvv8FSev2mT-4" style="rounded=0;orthogonalLoop=1;jettySize=auto;html=1;entryX=1;entryY=0.25;entryDx=0;entryDy=0;strokeColor=#FF6D2E;shape=link;elbow=vertical;" edge="1" parent="1" source="jHOiB6HgD3jSkZohINt8-3" target="jHOiB6HgD3jSkZohINt8-5">
          <mxGeometry relative="1" as="geometry">
            <Array as="points">
              <mxPoint x="500" y="230" />
            </Array>
          </mxGeometry>
        </mxCell>
        <mxCell id="HWlrB3JDiIvv8FSev2mT-5" value="6. Send Email" style="edgeLabel;html=1;align=center;verticalAlign=middle;resizable=0;points=[];" vertex="1" connectable="0" parent="HWlrB3JDiIvv8FSev2mT-4">
          <mxGeometry x="-0.151" y="1" relative="1" as="geometry">
            <mxPoint x="28" y="47" as="offset" />
          </mxGeometry>
        </mxCell>
        <mxCell id="HWlrB3JDiIvv8FSev2mT-10" style="edgeStyle=orthogonalEdgeStyle;rounded=0;orthogonalLoop=1;jettySize=auto;html=1;entryX=0.5;entryY=0;entryDx=0;entryDy=0;shape=link;fillColor=#d80073;strokeColor=#A50040;" edge="1" parent="1" source="jHOiB6HgD3jSkZohINt8-3" target="jHOiB6HgD3jSkZohINt8-6">
          <mxGeometry relative="1" as="geometry" />
        </mxCell>
        <mxCell id="HWlrB3JDiIvv8FSev2mT-12" value="8. Send Response Action" style="edgeLabel;html=1;align=center;verticalAlign=middle;resizable=0;points=[];" vertex="1" connectable="0" parent="HWlrB3JDiIvv8FSev2mT-10">
          <mxGeometry x="0.4599" y="-2" relative="1" as="geometry">
            <mxPoint as="offset" />
          </mxGeometry>
        </mxCell>
        <mxCell id="jHOiB6HgD3jSkZohINt8-3" value="Shuffle&lt;div&gt;&lt;br&gt;&lt;/div&gt;" style="image;aspect=fixed;perimeter=ellipsePerimeter;html=1;align=center;shadow=0;dashed=0;spacingTop=3;image=img/lib/active_directory/internet_cloud.svg;" parent="1" vertex="1">
          <mxGeometry x="385" y="70" width="50" height="31.5" as="geometry" />
        </mxCell>
        <mxCell id="jHOiB6HgD3jSkZohINt8-4" value="TheHive" style="image;aspect=fixed;perimeter=ellipsePerimeter;html=1;align=center;shadow=0;dashed=0;spacingTop=3;image=img/lib/active_directory/internet_cloud.svg;" parent="1" vertex="1">
          <mxGeometry x="625" y="240" width="50" height="31.5" as="geometry" />
        </mxCell>
        <mxCell id="jHOiB6HgD3jSkZohINt8-17" style="rounded=0;orthogonalLoop=1;jettySize=auto;html=1;shape=link;" parent="1" source="jHOiB6HgD3jSkZohINt8-5" target="jHOiB6HgD3jSkZohINt8-6" edge="1">
          <mxGeometry relative="1" as="geometry" />
        </mxCell>
        <mxCell id="jHOiB6HgD3jSkZohINt8-20" value="2. Receive Events" style="edgeLabel;html=1;align=center;verticalAlign=middle;resizable=0;points=[];" parent="jHOiB6HgD3jSkZohINt8-17" vertex="1" connectable="0">
          <mxGeometry x="0.1835" y="5" relative="1" as="geometry">
            <mxPoint as="offset" />
          </mxGeometry>
        </mxCell>
        <mxCell id="jHOiB6HgD3jSkZohINt8-19" style="edgeStyle=orthogonalEdgeStyle;rounded=0;orthogonalLoop=1;jettySize=auto;html=1;shape=link;fillColor=#d5e8d4;strokeColor=#82b366;" parent="1" source="jHOiB6HgD3jSkZohINt8-5" target="jHOiB6HgD3jSkZohINt8-3" edge="1">
          <mxGeometry relative="1" as="geometry" />
        </mxCell>
        <mxCell id="jHOiB6HgD3jSkZohINt8-27" value="4. Enrich IOCS" style="edgeLabel;html=1;align=center;verticalAlign=middle;resizable=0;points=[];" parent="jHOiB6HgD3jSkZohINt8-19" vertex="1" connectable="0">
          <mxGeometry x="-0.2293" relative="1" as="geometry">
            <mxPoint y="-18" as="offset" />
          </mxGeometry>
        </mxCell>
        <mxCell id="HWlrB3JDiIvv8FSev2mT-9" style="rounded=0;orthogonalLoop=1;jettySize=auto;html=1;entryX=0.25;entryY=1;entryDx=0;entryDy=0;shape=link;" edge="1" parent="1" source="jHOiB6HgD3jSkZohINt8-5" target="jHOiB6HgD3jSkZohINt8-3">
          <mxGeometry relative="1" as="geometry">
            <Array as="points">
              <mxPoint x="330" y="200" />
            </Array>
          </mxGeometry>
        </mxCell>
        <mxCell id="jHOiB6HgD3jSkZohINt8-5" value="Internet" style="image;aspect=fixed;perimeter=ellipsePerimeter;html=1;align=center;shadow=0;dashed=0;spacingTop=3;image=img/lib/active_directory/internet_cloud.svg;" parent="1" vertex="1">
          <mxGeometry x="385" y="258.5" width="50" height="31.5" as="geometry" />
        </mxCell>
        <mxCell id="jHOiB6HgD3jSkZohINt8-21" style="rounded=0;orthogonalLoop=1;jettySize=auto;html=1;entryX=0;entryY=0.5;entryDx=0;entryDy=0;shape=link;strokeColor=#3399FF;" parent="1" source="jHOiB6HgD3jSkZohINt8-6" target="jHOiB6HgD3jSkZohINt8-3" edge="1">
          <mxGeometry relative="1" as="geometry" />
        </mxCell>
        <mxCell id="jHOiB6HgD3jSkZohINt8-22" value="3. Send Alerts" style="edgeLabel;html=1;align=center;verticalAlign=middle;resizable=0;points=[];" parent="jHOiB6HgD3jSkZohINt8-21" vertex="1" connectable="0">
          <mxGeometry x="-0.032" y="2" relative="1" as="geometry">
            <mxPoint as="offset" />
          </mxGeometry>
        </mxCell>
        <mxCell id="jHOiB6HgD3jSkZohINt8-6" value="Wazuh Manager" style="image;aspect=fixed;perimeter=ellipsePerimeter;html=1;align=center;shadow=0;dashed=0;spacingTop=3;image=img/lib/active_directory/internet_cloud.svg;" parent="1" vertex="1">
          <mxGeometry x="160" y="240" width="50" height="31.5" as="geometry" />
        </mxCell>
        <mxCell id="jHOiB6HgD3jSkZohINt8-7" style="edgeStyle=orthogonalEdgeStyle;rounded=0;orthogonalLoop=1;jettySize=auto;html=1;exitX=0.5;exitY=1;exitDx=0;exitDy=0;entryX=0.75;entryY=1;entryDx=0;entryDy=0;" parent="1" source="jHOiB6HgD3jSkZohINt8-3" target="jHOiB6HgD3jSkZohINt8-3" edge="1">
          <mxGeometry relative="1" as="geometry" />
        </mxCell>
        <mxCell id="jHOiB6HgD3jSkZohINt8-10" value="" style="rounded=0;orthogonalLoop=1;jettySize=auto;html=1;entryX=1;entryY=1;entryDx=0;entryDy=0;shape=link;strokeColor=#FF6D2E;" parent="1" source="jHOiB6HgD3jSkZohINt8-8" edge="1" target="jHOiB6HgD3jSkZohINt8-5">
          <mxGeometry relative="1" as="geometry">
            <mxPoint x="650" y="500" as="targetPoint" />
          </mxGeometry>
        </mxCell>
        <mxCell id="HWlrB3JDiIvv8FSev2mT-6" value="7. Send &amp;amp; Receive Email" style="edgeLabel;html=1;align=center;verticalAlign=middle;resizable=0;points=[];" vertex="1" connectable="0" parent="jHOiB6HgD3jSkZohINt8-10">
          <mxGeometry x="-0.0583" y="2" relative="1" as="geometry">
            <mxPoint as="offset" />
          </mxGeometry>
        </mxCell>
        <mxCell id="HWlrB3JDiIvv8FSev2mT-7" style="rounded=0;orthogonalLoop=1;jettySize=auto;html=1;entryX=0.75;entryY=1;entryDx=0;entryDy=0;shape=link;fillColor=#d80073;strokeColor=#A50040;" edge="1" parent="1" source="jHOiB6HgD3jSkZohINt8-8" target="jHOiB6HgD3jSkZohINt8-5">
          <mxGeometry relative="1" as="geometry">
            <Array as="points">
              <mxPoint x="450" y="380" />
            </Array>
          </mxGeometry>
        </mxCell>
        <mxCell id="HWlrB3JDiIvv8FSev2mT-8" value="8. Send Response Action" style="edgeLabel;html=1;align=center;verticalAlign=middle;resizable=0;points=[];" vertex="1" connectable="0" parent="HWlrB3JDiIvv8FSev2mT-7">
          <mxGeometry x="0.0095" y="-1" relative="1" as="geometry">
            <mxPoint x="24" as="offset" />
          </mxGeometry>
        </mxCell>
        <mxCell id="jHOiB6HgD3jSkZohINt8-8" value="SOC Analyst" style="fontColor=#0066CC;verticalAlign=top;verticalLabelPosition=bottom;labelPosition=center;align=center;html=1;outlineConnect=0;fillColor=#CCCCCC;strokeColor=#6881B3;gradientColor=none;gradientDirection=north;strokeWidth=2;shape=mxgraph.networks.pc;" parent="1" vertex="1">
          <mxGeometry x="600" y="350" width="100" height="70" as="geometry" />
        </mxCell>
        <mxCell id="jHOiB6HgD3jSkZohINt8-25" value="" style="edgeStyle=orthogonalEdgeStyle;rounded=0;orthogonalLoop=1;jettySize=auto;html=1;startArrow=classic;startFill=1;shape=link;exitX=0.5;exitY=0.07;exitDx=0;exitDy=0;exitPerimeter=0;" parent="1" source="jHOiB6HgD3jSkZohINt8-1" target="jHOiB6HgD3jSkZohINt8-2" edge="1">
          <mxGeometry relative="1" as="geometry">
            <mxPoint x="410" y="655" as="sourcePoint" />
            <mxPoint x="410" y="470" as="targetPoint" />
          </mxGeometry>
        </mxCell>
        <mxCell id="jHOiB6HgD3jSkZohINt8-26" value="1.Send Events" style="edgeLabel;html=1;align=center;verticalAlign=middle;resizable=0;points=[];" parent="jHOiB6HgD3jSkZohINt8-25" vertex="1" connectable="0">
          <mxGeometry x="-0.1286" y="1" relative="1" as="geometry">
            <mxPoint as="offset" />
          </mxGeometry>
        </mxCell>
        <mxCell id="jHOiB6HgD3jSkZohINt8-2" value="Router&lt;div&gt;&lt;br&gt;&lt;/div&gt;" style="sketch=0;points=[[0.5,0,0],[1,0.5,0],[0.5,1,0],[0,0.5,0],[0.145,0.145,0],[0.8555,0.145,0],[0.855,0.8555,0],[0.145,0.855,0]];verticalLabelPosition=bottom;html=1;verticalAlign=top;aspect=fixed;align=center;pointerEvents=1;shape=mxgraph.cisco19.rect;prIcon=router;fillColor=#FAFAFA;strokeColor=#005073;" parent="1" vertex="1">
          <mxGeometry x="385" y="380" width="50" height="50" as="geometry" />
        </mxCell>
        <mxCell id="HWlrB3JDiIvv8FSev2mT-13" style="edgeStyle=orthogonalEdgeStyle;rounded=0;orthogonalLoop=1;jettySize=auto;html=1;entryX=0;entryY=0.5;entryDx=0;entryDy=0;entryPerimeter=0;shape=link;fillColor=#d80073;strokeColor=#A50040;" edge="1" parent="1" source="jHOiB6HgD3jSkZohINt8-6" target="jHOiB6HgD3jSkZohINt8-1">
          <mxGeometry relative="1" as="geometry">
            <Array as="points">
              <mxPoint x="185" y="300" />
              <mxPoint x="250" y="300" />
              <mxPoint x="250" y="685" />
            </Array>
          </mxGeometry>
        </mxCell>
        <mxCell id="HWlrB3JDiIvv8FSev2mT-14" value="Perform Response Action" style="edgeLabel;html=1;align=center;verticalAlign=middle;resizable=0;points=[];" vertex="1" connectable="0" parent="HWlrB3JDiIvv8FSev2mT-13">
          <mxGeometry x="-0.0756" y="-1" relative="1" as="geometry">
            <mxPoint as="offset" />
          </mxGeometry>
        </mxCell>
        <mxCell id="HWlrB3JDiIvv8FSev2mT-16" style="edgeStyle=orthogonalEdgeStyle;rounded=0;orthogonalLoop=1;jettySize=auto;html=1;" edge="1" parent="1" source="HWlrB3JDiIvv8FSev2mT-15">
          <mxGeometry relative="1" as="geometry">
            <mxPoint x="180" y="965" as="targetPoint" />
          </mxGeometry>
        </mxCell>
        <mxCell id="HWlrB3JDiIvv8FSev2mT-15" value="Windows 10 Send Events" style="text;html=1;align=center;verticalAlign=middle;whiteSpace=wrap;rounded=0;" vertex="1" parent="1">
          <mxGeometry x="10" y="950" width="90" height="30" as="geometry" />
        </mxCell>
        <mxCell id="HWlrB3JDiIvv8FSev2mT-18" style="edgeStyle=orthogonalEdgeStyle;rounded=0;orthogonalLoop=1;jettySize=auto;html=1;" edge="1" parent="1" source="HWlrB3JDiIvv8FSev2mT-17">
          <mxGeometry relative="1" as="geometry">
            <mxPoint x="480" y="965" as="targetPoint" />
          </mxGeometry>
        </mxCell>
        <mxCell id="HWlrB3JDiIvv8FSev2mT-17" value="Wazuh Manager&lt;div&gt;Trigger Alerts &amp;amp; Perform response actions&lt;/div&gt;" style="text;html=1;align=center;verticalAlign=middle;whiteSpace=wrap;rounded=0;" vertex="1" parent="1">
          <mxGeometry x="180" y="950" width="210" height="30" as="geometry" />
        </mxCell>
        <mxCell id="HWlrB3JDiIvv8FSev2mT-21" style="edgeStyle=orthogonalEdgeStyle;rounded=0;orthogonalLoop=1;jettySize=auto;html=1;" edge="1" parent="1" source="HWlrB3JDiIvv8FSev2mT-20">
          <mxGeometry relative="1" as="geometry">
            <mxPoint x="590" y="870" as="targetPoint" />
          </mxGeometry>
        </mxCell>
        <mxCell id="HWlrB3JDiIvv8FSev2mT-24" style="edgeStyle=orthogonalEdgeStyle;rounded=0;orthogonalLoop=1;jettySize=auto;html=1;entryX=0.5;entryY=0;entryDx=0;entryDy=0;" edge="1" parent="1" source="HWlrB3JDiIvv8FSev2mT-20" target="HWlrB3JDiIvv8FSev2mT-23">
          <mxGeometry relative="1" as="geometry" />
        </mxCell>
        <mxCell id="HWlrB3JDiIvv8FSev2mT-25" style="edgeStyle=orthogonalEdgeStyle;rounded=0;orthogonalLoop=1;jettySize=auto;html=1;" edge="1" parent="1" source="HWlrB3JDiIvv8FSev2mT-20">
          <mxGeometry relative="1" as="geometry">
            <mxPoint x="740" y="964.9999999999998" as="targetPoint" />
          </mxGeometry>
        </mxCell>
        <mxCell id="HWlrB3JDiIvv8FSev2mT-20" value="Shuffle&lt;div&gt;Receive Wazuh Alerts &amp;amp; Send responsive actions&lt;/div&gt;" style="text;html=1;align=center;verticalAlign=middle;whiteSpace=wrap;rounded=0;" vertex="1" parent="1">
          <mxGeometry x="480" y="950" width="210" height="30" as="geometry" />
        </mxCell>
        <mxCell id="HWlrB3JDiIvv8FSev2mT-22" value="OSINT&lt;div&gt;ENrich IOCS&lt;/div&gt;" style="text;html=1;align=center;verticalAlign=middle;whiteSpace=wrap;rounded=0;" vertex="1" parent="1">
          <mxGeometry x="490" y="830" width="210" height="30" as="geometry" />
        </mxCell>
        <mxCell id="HWlrB3JDiIvv8FSev2mT-23" value="The HIve&lt;div&gt;Create alert in case management&lt;/div&gt;" style="text;html=1;align=center;verticalAlign=middle;whiteSpace=wrap;rounded=0;" vertex="1" parent="1">
          <mxGeometry x="480" y="1050" width="210" height="30" as="geometry" />
        </mxCell>
        <mxCell id="HWlrB3JDiIvv8FSev2mT-27" value="Email&lt;div&gt;Send email &amp;amp; responsive action&lt;/div&gt;" style="text;html=1;align=center;verticalAlign=middle;whiteSpace=wrap;rounded=0;" vertex="1" parent="1">
          <mxGeometry x="740" y="950" width="210" height="30" as="geometry" />
        </mxCell>
      </root>
    </mxGraphModel>
  </diagram>
</mxfile>
